PathFileType	4	(X/Y/Z)	S1_rest_med_left.trc
DataRate	CameraRate	NumFrames	NumMarkers	Units	OrigDataRate	OrigDataStartFrame	OrigNumFrames
250.00	250.00	19	18	mm	250.00	2827	22613
Frame#	Time	c7	r_should	l_should	clavicle	r_upa	r_elb_l	r_elb_m	r_low	r_wri_l	r_wri_m	r_met	l_upa	l_elb_l	l_elb_m	l_low	l_wri_l	l_wri_m	l_met
	X1	Y1	Z1	X2	Y2	Z2	X3	Y3	Z3	X4	Y4	Z4	X5	Y5	Z5	X6	Y6	Z6	X7	Y7	Z7	X8	Y8	Z8	X9	Y9	Z9	X10	Y10	Z10	X11	Y11	Z11	X12	Y12	Z12	X13	Y13	Z13	X14	Y14	Z14	X15	Y15	Z15	X16	Y16	Z16	X17	Y17	Z17	X18	Y18	Z18
2827	11.30400	397.91803	1411.90149	50.50524	508.55994	1351.80188	213.64392	394.09628	1368.80750	-135.67142	541.02454	1306.40918	5.53382	516.81586	1155.74939	287.03348	542.79877	1059.88806	295.85004	461.06430	1027.35400	247.03732	546.48804	927.06525	307.54260	637.46228	876.15021	244.40013	585.96130	837.18372	275.86792	696.78204	802.46350	236.38907	443.88031	1168.58679	-204.13696	457.43661	1125.92126	-224.06857	491.82220	1065.76770	-133.32793	573.15515	1156.09924	-197.26598	578.60651	1261.62146	-205.39037	639.58899	1239.05432	-166.43294	635.98853	1304.41028	-231.56422
2828	11.30800	397.89343	1411.89478	50.47847	508.53305	1351.79907	213.62239	394.08292	1368.80042	-135.70251	540.78351	1306.53076	5.13766	516.79388	1155.75623	287.00375	542.77881	1059.88086	295.82639	461.05591	1027.33813	247.00125	546.47418	927.06091	307.51895	637.44861	876.14172	244.38811	585.95050	837.18176	275.85330	696.77863	802.45697	236.38316	443.87103	1168.58337	-204.17711	457.41379	1125.91577	-224.09662	491.77725	1065.79248	-133.42598	573.13989	1156.08545	-197.31172	578.59521	1261.61853	-205.43587	639.58716	1239.03613	-166.47696	635.97113	1304.40808	-231.63065
2829	11.31200	397.87091	1411.89075	50.44762	508.50879	1351.79309	213.59714	394.06564	1368.80017	-135.72784	540.92963	1306.45825	5.38405	516.77490	1155.74646	286.97037	542.75977	1059.87036	295.80081	461.04959	1027.32874	246.95160	546.46228	927.05621	307.49792	637.43835	876.13293	244.37010	585.93939	837.17413	275.83124	696.77405	802.45312	236.36568	443.85611	1168.58435	-204.21198	457.38635	1125.90637	-224.12746	491.70126	1065.80811	-133.54662	573.12250	1156.08020	-197.36205	578.58417	1261.62122	-205.48698	639.58710	1239.02014	-166.52814	635.94965	1304.41565	-231.69801
2830	11.31600	397.85065	1411.88806	50.42555	508.47958	1351.78748	213.57718	394.04358	1368.80530	-135.75316	540.68939	1306.72021	4.93857	516.76166	1155.73523	286.94708	542.74969	1059.86597	295.77805	461.03564	1027.32202	246.92435	546.45087	927.05151	307.47610	637.43311	876.12677	244.35013	585.93164	837.16882	275.81372	696.77185	802.45502	236.35536	443.84543	1168.58679	-204.24696	457.36575	1125.91089	-224.15974	491.74463	1065.77515	-133.46281	573.10114	1156.06702	-197.41714	578.57202	1261.61743	-205.53030	639.58502	1239.00659	-166.57674	635.92249	1304.42505	-231.75610
2831	11.32000	397.82623	1411.88672	50.40973	508.45438	1351.78259	213.56357	394.03165	1368.80798	-135.76991	540.57477	1306.77075	4.75364	516.74585	1155.73120	286.93509	542.72821	1059.86926	295.75272	461.01697	1027.31995	246.90382	546.43835	927.04425	307.45422	637.42938	876.12329	244.33728	585.92157	837.17059	275.79611	696.77161	802.45361	236.35323	443.84033	1168.59106	-204.27776	457.33505	1125.91382	-224.19241	491.76880	1065.75439	-133.46173	573.08099	1156.05591	-197.46973	578.55823	1261.61145	-205.57768	639.58508	1238.99341	-166.62560	635.90649	1304.43152	-231.79283
2832	11.32400	397.80325	1411.88831	50.38587	508.42786	1351.78101	213.54366	394.02478	1368.81726	-135.79172	540.63550	1306.64636	4.88474	516.67877	1155.66260	286.79468	542.71442	1059.86853	295.72589	461.00015	1027.30481	246.87263	546.43054	927.04205	307.42804	637.42700	876.12195	244.31841	585.91455	837.17169	275.77747	696.73578	802.54327	236.38263	443.83499	1168.59509	-204.30255	457.30325	1125.92310	-224.22182	491.76294	1065.74487	-133.49867	573.06049	1156.05005	-197.52426	578.54376	1261.60315	-205.61272	639.58575	1238.98474	-166.67709	635.88403	1304.42163	-231.82768
2833	11.32800	397.78247	1411.88928	50.36567	508.40128	1351.77686	213.52962	394.01715	1368.82825	-135.80927	540.86432	1306.52100	5.27549	516.56927	1155.53015	286.53415	542.70697	1059.86707	295.70068	460.98978	1027.29688	246.84828	546.42639	927.03894	307.40396	637.42792	876.12292	244.29277	585.91217	837.17059	275.75385	696.68939	802.65857	236.42117	443.82040	1168.60522	-204.31993	457.27267	1125.94055	-224.24585	491.72610	1065.74792	-133.54768	573.04254	1156.04346	-197.57184	578.53058	1261.60168	-205.64633	639.58380	1238.97473	-166.73419	635.86365	1304.43066	-231.87787
2834	11.33200	397.76236	1411.88452	50.35944	508.36758	1351.77283	213.51602	394.00766	1368.84802	-135.83543	540.88605	1306.60229	5.23364	516.57452	1155.54456	286.56070	542.70282	1059.86523	295.68671	460.98282	1027.28711	246.83115	546.42053	927.03461	307.38022	637.42651	876.12354	244.27643	585.91022	837.16803	275.73431	696.74408	802.51263	236.32690	443.79764	1168.61975	-204.34796	457.25098	1125.95349	-224.26479	491.67813	1065.75452	-133.60643	573.02356	1156.04199	-197.62144	578.51385	1261.61133	-205.68932	639.58514	1238.96570	-166.77983	635.84094	1304.42871	-231.92218
2835	11.33600	397.74286	1411.87805	50.35447	508.33173	1351.76782	213.50725	393.99933	1368.86292	-135.85960	541.27808	1306.30347	5.85925	516.65472	1155.65881	286.75336	542.69214	1059.85571	295.66724	460.97772	1027.27881	246.81619	546.41656	927.02710	307.35876	637.42310	876.12463	244.26027	585.90863	837.15948	275.71613	696.75586	802.47113	236.27184	443.77399	1168.63550	-204.37837	457.22348	1125.96375	-224.29205	491.62317	1065.74890	-133.65108	572.99762	1156.03125	-197.67068	578.49860	1261.61743	-205.74541	639.58521	1238.95386	-166.82413	635.82001	1304.43213	-231.97342
2836	11.34000	397.72244	1411.86792	50.34193	508.29602	1351.75562	213.50169	393.99799	1368.87634	-135.87529	540.95605	1306.42688	5.44378	516.66284	1155.67529	286.79044	542.68213	1059.83765	295.65076	460.97266	1027.27625	246.79860	546.41510	927.01477	307.33820	637.42029	876.11847	244.23984	585.91125	837.14844	275.69775	696.75232	802.46246	236.23163	443.74811	1168.65149	-204.41039	457.19131	1125.97156	-224.32497	491.60364	1065.75781	-133.66902	572.96765	1156.01550	-197.72418	578.48749	1261.60913	-205.79820	639.57971	1238.93799	-166.87590	635.80444	1304.43359	-232.03229
2837	11.34400	397.70312	1411.86267	50.33059	508.25589	1351.74463	213.49927	393.99387	1368.89221	-135.88539	540.69531	1306.58716	5.03002	516.61554	1155.60571	286.69086	542.67096	1059.82410	295.63876	460.95746	1027.26270	246.77969	546.41333	927.00336	307.31915	637.42096	876.11188	244.21397	585.91644	837.14111	275.67798	696.75348	802.45557	236.20097	443.72498	1168.66943	-204.44394	457.15460	1125.96814	-224.34019	491.59027	1065.76721	-133.71042	572.94342	1155.99463	-197.77327	578.47858	1261.59119	-205.83543	639.57111	1238.91797	-166.94048	635.77533	1304.42236	-232.08798
2838	11.34800	397.68231	1411.85437	50.32706	508.21579	1351.72791	213.49498	393.99234	1368.90723	-135.89589	540.98132	1306.38953	5.54750	516.55298	1155.52161	286.54886	542.65771	1059.81018	295.62140	460.94489	1027.24255	246.77266	546.41388	926.99316	307.30151	637.42096	876.10626	244.18300	585.91992	837.13519	275.65848	696.71771	802.53735	236.19795	443.69958	1168.68335	-204.48009	457.11688	1125.96790	-224.35936	491.55432	1065.77539	-133.74971	572.92108	1155.97839	-197.82619	578.46814	1261.58008	-205.88509	639.57312	1238.89294	-166.99287	635.76404	1304.42737	-232.15480
2839	11.35200	397.65948	1411.84399	50.32372	508.17426	1351.71155	213.49176	393.99500	1368.93115	-135.90866	541.14716	1306.30212	5.78927	516.60687	1155.59741	286.69965	542.65045	1059.79492	295.60275	460.93561	1027.22986	246.77417	546.41864	926.98230	307.28369	637.42273	876.10577	244.15273	585.92804	837.12878	275.63751	696.68030	802.64880	236.20570	443.67654	1168.69360	-204.51364	457.07556	1125.97595	-224.39127	491.49039	1065.77795	-133.79132	572.89325	1155.96289	-197.87929	578.45258	1261.56628	-205.93068	639.57153	1238.86548	-167.05185	635.75891	1304.42554	-232.22960
2840	11.35600	397.63940	1411.84058	50.32170	508.12967	1351.69836	213.49286	393.98889	1368.95325	-135.91751	541.12042	1306.37476	5.66158	516.59882	1155.61035	286.74472	542.64752	1059.77917	295.58862	460.93463	1027.20837	246.76157	546.42279	926.97412	307.26535	637.42181	876.10016	244.12074	585.94324	837.11969	275.61447	696.74725	802.49420	236.09375	443.64212	1168.69971	-204.54114	457.02832	1125.99207	-224.43288	491.45071	1065.77917	-133.83018	572.86072	1155.94861	-197.93634	578.43628	1261.55737	-205.97493	639.56787	1238.83337	-167.11565	635.73859	1304.41479	-232.29868
2841	11.36000	397.61957	1411.83545	50.31817	508.08591	1351.68188	213.49788	393.98129	1368.97156	-135.92523	540.70032	1306.60181	5.06574	516.54340	1155.55286	286.65787	542.64062	1059.76440	295.57568	460.93036	1027.19214	246.75456	546.42993	926.96185	307.24628	637.41937	876.09515	244.09398	585.95709	837.11108	275.59280	696.76941	802.45221	236.03522	443.60486	1168.70874	-204.56212	456.97528	1126.00586	-224.45871	491.39737	1065.77136	-133.86044	572.82330	1155.92529	-197.99055	578.41772	1261.53711	-206.01074	639.56738	1238.79370	-167.17885	635.71790	1304.40112	-232.36978
2842	11.36400	397.60211	1411.82776	50.31033	508.04001	1351.66455	213.49756	393.98160	1368.99072	-135.93436	540.95331	1306.42078	5.54546	516.43225	1155.42139	286.43863	542.63293	1059.74670	295.56549	460.91568	1027.17065	246.74701	546.44476	926.94586	307.22635	637.42389	876.09033	244.06273	585.97363	837.09845	275.56958	696.78101	802.44122	235.98650	443.56940	1168.71960	-204.59062	456.91809	1126.01978	-224.49342	491.34271	1065.76111	-133.90726	572.78455	1155.90308	-198.04637	578.39709	1261.51538	-206.04750	639.56653	1238.75476	-167.23701	635.70020	1304.38269	-232.43498
2843	11.36800	397.58630	1411.81909	50.30878	507.99197	1351.64160	213.49731	393.98065	1369.00879	-135.94441	541.01123	1306.36902	5.66178	516.39172	1155.37085	286.38303	542.62744	1059.72461	295.54877	460.90512	1027.13831	246.74092	546.45001	926.93030	307.21136	637.43591	876.08228	244.02731	585.98889	837.08545	275.54257	696.79236	802.43597	235.93976	443.52817	1168.72974	-204.61703	456.85751	1126.02380	-224.51717	491.30078	1065.76819	-133.95509	572.74286	1155.87976	-198.10704	578.37750	1261.49487	-206.09006	639.55688	1238.71631	-167.30655	635.68854	1304.36487	-232.52541
2844	11.37200	397.57150	1411.81177	50.31211	507.95007	1351.61353	213.49857	393.97064	1369.02612	-135.94389	541.12408	1306.32214	5.80085	516.35266	1155.33191	286.36719	542.61945	1059.70508	295.53403	460.89130	1027.11121	246.72818	546.45251	926.91620	307.18832	637.44452	876.07599	243.99936	586.00092	837.07147	275.51520	696.80615	802.44269	235.89333	443.48740	1168.74023	-204.63882	456.79715	1126.03088	-224.53310	491.23380	1065.77246	-133.99214	572.70111	1155.86230	-198.16527	578.35901	1261.46802	-206.12949	639.55396	1238.66968	-167.37794	635.68048	1304.35876	-232.60864
2845	11.37600	397.55008	1411.80396	50.30966	507.90842	1351.58618	213.49574	393.95685	1369.04663	-135.94894	541.26703	1306.27722	5.96899	516.36188	1155.36096	286.46683	542.59930	1059.67981	295.52097	460.88614	1027.08179	246.71602	546.45886	926.89966	307.16586	637.45129	876.06976	243.97537	586.01245	837.05493	275.48929	696.82166	802.44763	235.86737	443.44125	1168.75793	-204.66692	456.73651	1126.04370	-224.54959	491.16245	1065.76892	-134.02223	572.66223	1155.84094	-198.22208	578.34558	1261.45361	-206.17387	639.55200	1238.61365	-167.45401	635.64990	1304.33899	-232.65703
